<svg xmlns="http://www.w3.org/2000/svg" width="184" height="40" viewBox="0 0 184 40">
    <g fill="none" fill-rule="evenodd">
        <path fill="#2A506F" d="M54.312 19.034c-.948.767-1.421 1.743-1.421 2.931 0 1.256.435 2.31 1.307 3.163.872.852 2.019 1.278 3.44 1.278 1.345 0 2.434-.405 3.268-1.218.834-.81 1.251-1.82 1.251-3.03 0-1.19-.417-2.205-1.25-3.042-.835-.838-1.924-1.256-3.27-1.256-1.27.017-2.378.409-3.325 1.174zm-4.974-8.843h3.78v6.274h.057c.417-.55.97-.977 1.663-1.278a8.213 8.213 0 0 1 2.146-.607 10.327 10.327 0 0 1 1.052-.052c2.311 0 4.206.767 5.685 2.298 1.477 1.533 2.216 3.306 2.216 5.32 0 .292-.019.598-.057.916a5.435 5.435 0 0 1-.199.942A8.136 8.136 0 0 1 65 25.812a6.973 6.973 0 0 1-1.08 1.55 6.8 6.8 0 0 1-2.586 1.768 8.585 8.585 0 0 1-3.184.607c-1.08 0-2.08-.186-2.999-.556-.92-.37-1.681-.976-2.288-1.82l-.056-.026v1.936h-3.468v-19.08zM80.462 22.094c0-1.188-.422-2.19-1.265-3.008-.844-.818-1.938-1.218-3.283-1.2-1.384-.018-2.516.395-3.397 1.239-.881.843-1.321 1.894-1.321 3.15 0 1.17.459 2.155 1.378 2.955.92.801 2.014 1.194 3.283 1.176 1.365.018 2.473-.387 3.326-1.214.852-.826 1.279-1.85 1.279-3.072v-.026zm3.581 7.178h-3.468v-1.937h-.056c-.474.62-1.1 1.128-1.877 1.524a8.255 8.255 0 0 1-2.415.8l-.526.052a5.65 5.65 0 0 1-.526.025c-1.213 0-2.313-.21-3.297-.632a7.202 7.202 0 0 1-2.502-1.743 7.432 7.432 0 0 1-1.449-2.375 7.91 7.91 0 0 1-.512-2.84c0-.999.156-1.92.469-2.763.313-.843.83-1.635 1.55-2.376.795-.843 1.68-1.467 2.657-1.872.976-.404 2.041-.607 3.197-.607 1.08 0 2.076.212 2.985.633a6.138 6.138 0 0 1 2.302 1.846v-2.04h3.468v14.305z"/>
        <path fill="#AC3BB5" d="M18.836 23.834v11.625a4.38 4.38 0 0 0 1.395-.504l9.568-5.53a4.563 4.563 0 0 0 2.269-3.942V14.45a4.41 4.41 0 0 0-.201-1.297l-10.401 6.032c-2.138 1.52-2.6 2.959-2.63 4.648"/>
        <path fill="#CF83DC" d="M35.662 10.953l-3.795 2.2c.128.417.2.852.2 1.298v11.032c0 1.622-.869 3.133-2.268 3.942l-9.568 5.53c-.438.254-.911.413-1.395.504v4.39a5.447 5.447 0 0 0 1.923-.661l12.426-7.183a5.645 5.645 0 0 0 2.806-4.875V12.804c0-.63-.115-1.249-.33-1.851"/>
        <path fill="#AC3BB5" d="M17.964 20.18c.566-.928 1.409-1.73 2.62-2.497l10.468-6.072A4.433 4.433 0 0 0 29.8 10.51l-9.568-5.53a4.518 4.518 0 0 0-4.516.002l-9.529 5.527a4.43 4.43 0 0 0-1.27 1.128l10.42 6.043c1.219.771 2.062 1.573 2.628 2.5"/>
        <path fill="#CF83DC" d="M6.186 10.507l9.529-5.526a4.518 4.518 0 0 1 4.516-.003l9.568 5.531c.494.285.91.667 1.253 1.102l3.79-2.197a5.485 5.485 0 0 0-1.657-1.485L20.759.746a5.588 5.588 0 0 0-5.584.003L2.8 7.927a5.565 5.565 0 0 0-1.67 1.512l3.786 2.196a4.44 4.44 0 0 1 1.27-1.128M15.715 34.953l-9.529-5.528a4.562 4.562 0 0 1-2.263-3.938v-11.04c0-.434.07-.858.19-1.263L.315 10.982A5.522 5.522 0 0 0 0 12.798v14.338a5.641 5.641 0 0 0 2.8 4.87l12.374 7.178c.587.34 1.231.558 1.917.663v-4.393a4.37 4.37 0 0 1-1.376-.501"/>
        <path fill="#AC3BB5" d="M14.445 19.174l-10.332-5.99c-.12.406-.19.829-.19 1.262v11.041c0 1.62.867 3.13 2.263 3.939l9.53 5.527c.432.25.898.41 1.375.5V23.83c-.03-1.686-.491-3.124-2.646-4.656"/>
        <path fill="#2A506F" d="M86.857 29.272h3.78V10.19h-3.78zM105.616 20.597c-.304-.844-.853-1.507-1.649-1.989a5.004 5.004 0 0 0-2.643-.722h-.228c-.91.05-1.762.32-2.558.805-.795.486-1.326 1.12-1.592 1.906h8.67zm-8.612 3.046c.284.844.81 1.515 1.577 2.014.768.499 1.624.75 2.573.75a6.07 6.07 0 0 0 2.031-.337c.635-.224 1.133-.525 1.493-.904l4.179-.026c-.475 1.291-1.436 2.38-2.885 3.267-1.45.886-3.009 1.33-4.676 1.33-2.293 0-4.25-.728-5.87-2.182s-2.43-3.223-2.43-5.306c0-2.117.805-3.933 2.416-5.449 1.61-1.514 3.59-2.272 5.94-2.272 2.255 0 4.165.752 5.728 2.254 1.563 1.501 2.345 3.248 2.345 5.239 0 .223-.015.442-.043.657-.029.214-.062.424-.1.63-.018.07-.033.13-.042.18a.845.845 0 0 0-.014.155H97.004zM111.87 14.968h3.495v1.317h.058c.434-.534 1.008-.947 1.72-1.24a7.053 7.053 0 0 1 2.23-.516h.569c.075 0 .151.009.227.025a6.604 6.604 0 0 1 2.203.543 6.07 6.07 0 0 1 1.833 1.213l.214.194c.066.06.127.133.184.22.606.774.967 1.6 1.08 2.478.114.878.171 1.773.171 2.685v7.385h-3.78V21.86c0-.24-.01-.481-.03-.722a6.91 6.91 0 0 0-.198-1.098 3.397 3.397 0 0 0-.426-.968 2.624 2.624 0 0 0-1.01-.827 3.65 3.65 0 0 0-1.32-.36h-.356a.99.99 0 0 0-.214.025 3.723 3.723 0 0 0-1.279.4 2.506 2.506 0 0 0-.966.84 3.021 3.021 0 0 0-.426.968c-.095.37-.152.744-.17 1.123-.02.224-.029.448-.029.671v7.359h-3.78V14.968zM141.288 22.094c0-1.188-.422-2.19-1.265-3.008-.844-.818-1.938-1.218-3.283-1.2-1.384-.018-2.516.395-3.397 1.239-.88.843-1.322 1.894-1.322 3.15 0 1.17.46 2.155 1.38 2.955.918.801 2.012 1.194 3.282 1.176 1.365.018 2.473-.387 3.326-1.214.852-.826 1.279-1.85 1.279-3.072v-.026zm3.581 7.178h-3.468v-1.937h-.056c-.474.62-1.1 1.128-1.877 1.524a8.264 8.264 0 0 1-2.415.8l-.526.052a5.642 5.642 0 0 1-.526.025c-1.213 0-2.313-.21-3.297-.632a7.194 7.194 0 0 1-2.501-1.743 7.424 7.424 0 0 1-1.45-2.375 7.91 7.91 0 0 1-.512-2.84c0-.999.157-1.92.469-2.763.313-.843.828-1.635 1.549-2.376.796-.843 1.682-1.467 2.658-1.872.976-.404 2.04-.607 3.197-.607 1.08 0 2.076.212 2.985.633a6.138 6.138 0 0 1 2.302 1.846v-2.04h3.468v14.305z"/>
        <path fill="#AC3BB5" d="M150.163 10.056h10.524v4.32h-5.601v3.28h5.393v4.322h-5.393v7.34h-4.923zM163.16 29.319h4.325V14.87h-4.324V29.32zm0-15.984h4.325v-3.28h-4.324v3.28zM170.61 14.871h4.038v1.536c.495-.702 1.407-2.03 3.986-2.03 4.871 0 5.366 3.956 5.366 5.908v9.034h-4.324V21.43c0-1.588-.339-2.994-2.266-2.994-2.136 0-2.475 1.536-2.475 3.02v7.862h-4.325V14.87z"/>
    </g>
</svg>
